<svg xmlns="http://www.w3.org/2000/svg" viewBox="0 0 170.39 218.5"><defs><style>.cls-1{fill:#c4a43d;}.cls-2{fill:#f9f8f7;}.cls-3{fill:#0c0c0b;}.cls-4{fill:#050400;}.cls-5{fill:#ba9c20;}.cls-5,.cls-6{stroke:#000;stroke-miterlimit:10;}.cls-6{fill:none;}</style></defs><title>Aktiv 1</title><g id="Lag_2" data-name="Lag 2"><g id="Lag_1-2" data-name="Lag 1"><rect class="cls-1" x="0.5" y="37.01" width="131.92" height="137.72"/><path d="M131.92,37.51V174.23H1V37.51H131.92m1-1H0V175.23H132.92V36.51Z"/><ellipse class="cls-2" cx="33.11" cy="82.91" rx="18.11" ry="20.77"/><path d="M33.11,62.64c9.71,0,17.61,9.09,17.61,20.27s-7.9,20.27-17.61,20.27S15.5,94.08,15.5,82.91s7.9-20.27,17.61-20.27m0-1c-10.28,0-18.61,9.52-18.61,21.27s8.33,21.27,18.61,21.27,18.61-9.53,18.61-21.27S43.39,61.64,33.11,61.64Z"/><path class="cls-3" d="M38.91,95A12.31,12.31,0,1,1,51.22,82.67,12.33,12.33,0,0,1,38.91,95Z"/><path d="M38.91,70.86A11.81,11.81,0,1,1,27.1,82.67,11.83,11.83,0,0,1,38.91,70.86m0-1A12.81,12.81,0,1,0,51.72,82.67,12.8,12.8,0,0,0,38.91,69.86Z"/><path class="cls-2" d="M99.32,103.67c-10,0-18.1-9.31-18.1-20.76s8.12-20.77,18.1-20.77,18.11,9.32,18.11,20.77S109.31,103.67,99.32,103.67Z"/><path d="M99.33,62.64c9.7,0,17.6,9.09,17.6,20.27s-7.9,20.27-17.6,20.27-17.61-9.1-17.61-20.27,7.9-20.27,17.61-20.27m0-1c-10.28,0-18.61,9.52-18.61,21.27s8.33,21.27,18.61,21.27,18.6-9.53,18.6-21.27-8.33-21.27-18.6-21.27Z"/><path class="cls-3" d="M105.13,95a12.31,12.31,0,1,1,12.3-12.31A12.33,12.33,0,0,1,105.13,95Z"/><path d="M105.13,70.86A11.81,11.81,0,1,1,93.32,82.67a11.82,11.82,0,0,1,11.81-11.81m0-1a12.81,12.81,0,1,0,12.8,12.81,12.8,12.8,0,0,0-12.8-12.81Z"/><rect class="cls-4" x="17.9" y="123.04" width="96.63" height="23.65"/><path d="M114,123.54v22.65H18.4V123.54H114m1-1H17.4v24.65H115V122.54Z"/><circle class="cls-5" cx="29" cy="197.94" r="19.09"/><circle class="cls-5" cx="104.88" cy="198.91" r="19.09"/><path d="M70,54.27C77.64,40.63,93.89,19.37,112,22.89c7.22,1.4,13.61,6.11,21.14,6.05,7.27-.06,12.76-5,17.71-9.71,1.4-1.35-.73-3.46-2.12-2.13-3.53,3.39-7.3,7.14-12.19,8.41s-9.6-.5-14.09-2.24c-7.08-2.74-13.64-5-21.21-2.7-14.83,4.5-26.51,19.2-33.77,32.19A1.5,1.5,0,0,0,70,54.27Z"/><ellipse class="cls-6" cx="159.26" cy="11.38" rx="10.63" ry="10.88"/></g></g></svg>