<?xml version="1.0" encoding="utf-8"?>
<!-- Generator: Adobe Illustrator 22.0.1, SVG Export Plug-In . SVG Version: 6.00 Build 0)  -->
<svg version="1.1" id="Lag_1" xmlns="http://www.w3.org/2000/svg" xmlns:xlink="http://www.w3.org/1999/xlink" x="0px" y="0px"
	 viewBox="0 0 1280 1024" style="enable-background:new 0 0 1280 1024;" xml:space="preserve">
<style type="text/css">
	.st0{fill:#C4A43D;}
	.st1{fill:#F9F8F7;}
	.st2{fill:#0C0C0B;}
	.st3{fill:#050400;}
	.st4{fill:#BA9C20;stroke:#000000;stroke-miterlimit:10;}
	.st5{fill:none;stroke:#000000;stroke-miterlimit:10;}
</style>
<g>
	<g>
		<g>
			<rect x="317.1" y="71" class="st0" width="131.9" height="137.7"/>
			<path d="M448.5,71.5v136.7H317.6V71.5H448.5 M449.5,70.5H316.6v138.7h132.9V70.5L449.5,70.5z"/>
		</g>
		<g>
			<ellipse class="st1" cx="349.7" cy="116.9" rx="18.1" ry="20.8"/>
			<path d="M349.7,96.6c9.7,0,17.6,9.1,17.6,20.3s-7.9,20.3-17.6,20.3s-17.6-9.1-17.6-20.3S340,96.6,349.7,96.6 M349.7,95.6
				c-10.3,0-18.6,9.5-18.6,21.3s8.3,21.3,18.6,21.3s18.6-9.5,18.6-21.3S360,95.6,349.7,95.6L349.7,95.6z"/>
		</g>
		<g>
			<path class="st2" d="M355.5,129c-6.8,0-12.3-5.5-12.3-12.3c0-6.8,5.5-12.3,12.3-12.3c6.8,0,12.3,5.5,12.3,12.3
				C367.8,123.5,362.3,129,355.5,129z"/>
			<path d="M355.5,104.9c6.5,0,11.8,5.3,11.8,11.8s-5.3,11.8-11.8,11.8s-11.8-5.3-11.8-11.8S349,104.9,355.5,104.9 M355.5,103.9
				c-7.1,0-12.8,5.7-12.8,12.8s5.7,12.8,12.8,12.8s12.8-5.7,12.8-12.8S362.6,103.9,355.5,103.9L355.5,103.9z"/>
		</g>
		<g>
			<path class="st1" d="M415.9,137.7c-10,0-18.1-9.3-18.1-20.8s8.1-20.8,18.1-20.8s18.1,9.3,18.1,20.8S425.9,137.7,415.9,137.7z"/>
			<path d="M415.9,96.6c9.7,0,17.6,9.1,17.6,20.3s-7.9,20.3-17.6,20.3s-17.6-9.1-17.6-20.3S406.2,96.6,415.9,96.6 M415.9,95.6
				c-10.3,0-18.6,9.5-18.6,21.3s8.3,21.3,18.6,21.3s18.6-9.5,18.6-21.3S426.2,95.6,415.9,95.6L415.9,95.6z"/>
		</g>
		<g>
			<path class="st2" d="M421.7,129c-6.8,0-12.3-5.5-12.3-12.3c0-6.8,5.5-12.3,12.3-12.3c6.8,0,12.3,5.5,12.3,12.3
				C434,123.5,428.5,129,421.7,129z"/>
			<path d="M421.7,104.9c6.5,0,11.8,5.3,11.8,11.8s-5.3,11.8-11.8,11.8s-11.8-5.3-11.8-11.8S415.2,104.9,421.7,104.9 M421.7,103.9
				c-7.1,0-12.8,5.7-12.8,12.8s5.7,12.8,12.8,12.8s12.8-5.7,12.8-12.8S428.8,103.9,421.7,103.9L421.7,103.9z"/>
		</g>
		<g>
			<rect x="334.5" y="157" class="st3" width="96.6" height="23.7"/>
			<path d="M430.6,157.5v22.6H335v-22.6H430.6 M431.6,156.5H334v24.6h97.6V156.5L431.6,156.5z"/>
		</g>
	</g>
	<circle class="st4" cx="345.6" cy="231.9" r="19.1"/>
	<circle class="st4" cx="421.5" cy="232.9" r="19.1"/>
	<g>
		<g>
			<path d="M386.6,88.3c7.6-13.6,23.9-34.9,41.9-31.4c7.2,1.4,13.6,6.1,21.1,6.1c7.3-0.1,12.8-5,17.7-9.7c1.4-1.3-0.7-3.5-2.1-2.1
				c-3.5,3.4-7.3,7.1-12.2,8.4c-4.9,1.3-9.6-0.5-14.1-2.2c-7.1-2.7-13.6-5-21.2-2.7C403,59.1,391.3,73.8,384,86.8
				C383.1,88.4,385.7,90,386.6,88.3L386.6,88.3z"/>
		</g>
	</g>
	<ellipse class="st5" cx="475.9" cy="45.4" rx="10.6" ry="10.9"/>
</g>
</svg>
